<svg xmlns="http://www.w3.org/2000/svg" xmlns:xlink="http://www.w3.org/1999/xlink" width="1080" zoomAndPan="magnify" viewBox="0 0 810 809.999993" height="1080" preserveAspectRatio="xMidYMid meet" version="1.0"><defs><clipPath id="0ca64c7817"><path d="M 63 63 L 747 63 L 747 747 L 63 747 Z M 63 63 " clip-rule="nonzero"/></clipPath><clipPath id="c8ddd2f60c"><path d="M 405 63 C 216.117188 63 63 216.117188 63 405 C 63 593.882812 216.117188 747 405 747 C 593.882812 747 747 593.882812 747 405 C 747 216.117188 593.882812 63 405 63 Z M 405 63 " clip-rule="nonzero"/></clipPath><clipPath id="9c2bfbc627"><path d="M 178 159.632812 L 552 159.632812 L 552 383 L 178 383 Z M 178 159.632812 " clip-rule="nonzero"/></clipPath><clipPath id="ec8b15dcf2"><path d="M 445 373 L 645.726562 373 L 645.726562 635 L 445 635 Z M 445 373 " clip-rule="nonzero"/></clipPath><clipPath id="84640eb068"><path d="M 164.539062 329 L 640 329 L 640 643 L 164.539062 643 Z M 164.539062 329 " clip-rule="nonzero"/></clipPath></defs><g clip-path="url(#0ca64c7817)"><g clip-path="url(#c8ddd2f60c)"><path fill="#ffffff" d="M 63 63 L 747 63 L 747 747 L 63 747 Z M 63 63 " fill-opacity="1" fill-rule="nonzero"/></g></g><g clip-path="url(#9c2bfbc627)"><path fill="#1d203d" d="M 444.789062 382.078125 C 444.789062 382.078125 443.132812 217.371094 178.816406 314.898438 C 178.816406 314.898438 271.304688 212.289062 412.796875 261.507812 C 412.796875 261.507812 445.777344 184.96875 551.300781 209.703125 C 551.300781 209.703125 398.742188 246.742188 501.386719 353.785156 C 501.386719 353.78125 464.066406 368.136719 444.789062 382.078125 Z M 350.640625 200.3125 C 350.640625 222.78125 368.855469 240.996094 391.324219 240.996094 C 413.789062 240.996094 432.003906 222.78125 432.003906 200.3125 C 432.003906 177.847656 413.789062 159.632812 391.324219 159.632812 C 368.855469 159.632812 350.640625 177.847656 350.640625 200.3125 Z M 350.640625 200.3125 " fill-opacity="1" fill-rule="nonzero"/></g><g clip-path="url(#ec8b15dcf2)"><path fill="#8fc4cd" d="M 645.335938 400.769531 C 645.335938 426.972656 641.097656 453.148438 632.710938 477.972656 C 619.707031 516.460938 596.753906 551.460938 566.691406 578.785156 C 551.988281 592.148438 535.640625 603.695312 518.128906 613.078125 C 513.355469 615.636719 466.292969 638.429688 463.800781 634.070312 C 449.371094 608.816406 443.167969 578.941406 446.347656 550.03125 C 449.375 522.488281 461.058594 493.464844 480.410156 473.257812 C 478.96875 474.765625 473.886719 512.757812 474.007812 521.109375 C 474.230469 536.210938 479.917969 553.558594 492.984375 562.957031 C 513.425781 577.664062 539.949219 561.09375 556.601562 547.894531 C 575.953125 532.550781 591.160156 512.15625 603.464844 490.90625 C 624.289062 454.953125 636.632812 414.390625 643.746094 373.632812 C 644.753906 382.546875 645.335938 391.585938 645.335938 400.769531 Z M 488.875 501.050781 C 488.875 522.679688 506.410156 540.214844 528.042969 540.214844 C 549.671875 540.214844 567.207031 522.679688 567.207031 501.050781 C 567.207031 479.421875 549.671875 461.886719 528.042969 461.886719 C 506.410156 461.886719 488.875 479.421875 488.875 501.050781 Z M 488.875 501.050781 " fill-opacity="1" fill-rule="nonzero"/></g><g clip-path="url(#84640eb068)"><path fill="#908fcd" d="M 350.640625 329.175781 C 379.859375 329.175781 403.542969 352.859375 403.542969 382.078125 C 403.542969 411.296875 379.859375 434.988281 350.640625 434.988281 C 321.421875 434.988281 297.734375 411.300781 297.734375 382.082031 C 297.734375 352.863281 321.421875 329.175781 350.640625 329.175781 Z M 639.496094 347.832031 C 486.839844 338.5 345.128906 485.429688 345.128906 485.429688 C 252.855469 382.078125 164.636719 373.222656 164.636719 373.222656 C 164.628906 373.316406 164.625 373.410156 164.617188 373.503906 C 181.886719 387.148438 213.804688 414.195312 243.234375 449.03125 C 268.410156 478.832031 286.867188 508.417969 298.089844 536.960938 C 309.65625 566.378906 313.503906 594.753906 309.632812 621.558594 C 332.703125 631.871094 349.136719 635.589844 349.136719 635.589844 C 402.070312 650.300781 439.894531 638.4375 439.894531 638.4375 C 332.125 437.996094 639.496094 347.832031 639.496094 347.832031 Z M 639.496094 347.832031 " fill-opacity="1" fill-rule="nonzero"/></g></svg>