<svg xmlns="http://www.w3.org/2000/svg" xmlns:xlink="http://www.w3.org/1999/xlink" width="1080" zoomAndPan="magnify" viewBox="0 0 810 809.999993" height="1080" preserveAspectRatio="xMidYMid meet" version="1.0"><defs><g/><clipPath id="f43d238f7c"><path d="M 59.335938 311.464844 L 246.402344 311.464844 L 246.402344 498.535156 L 59.335938 498.535156 Z M 59.335938 311.464844 " clip-rule="nonzero"/></clipPath><clipPath id="9eae881bfb"><path d="M 152.871094 311.464844 C 101.210938 311.464844 59.335938 353.34375 59.335938 405 C 59.335938 456.65625 101.210938 498.535156 152.871094 498.535156 C 204.527344 498.535156 246.402344 456.65625 246.402344 405 C 246.402344 353.34375 204.527344 311.464844 152.871094 311.464844 Z M 152.871094 311.464844 " clip-rule="nonzero"/></clipPath><clipPath id="76f0514b3f"><path d="M 91 337.894531 L 193 337.894531 L 193 399 L 91 399 Z M 91 337.894531 " clip-rule="nonzero"/></clipPath><clipPath id="59fba5dbc2"><path d="M 163 396 L 218.707031 396 L 218.707031 468 L 163 468 Z M 163 396 " clip-rule="nonzero"/></clipPath><clipPath id="94911843bc"><path d="M 87.105469 384 L 217 384 L 217 471 L 87.105469 471 Z M 87.105469 384 " clip-rule="nonzero"/></clipPath></defs><g fill="#ffffff" fill-opacity="1"><g transform="translate(267.195372, 453.416146)"><g><path d="M 65.9375 -25.421875 L 68.3125 -27.140625 C 71.3125 -28.898438 73.429688 -29.78125 74.671875 -29.78125 C 77.398438 -29.78125 80.351562 -27.3125 83.53125 -22.375 C 85.476562 -19.28125 86.453125 -16.804688 86.453125 -14.953125 C 86.453125 -13.109375 85.851562 -11.566406 84.65625 -10.328125 C 83.46875 -9.085938 82.078125 -7.984375 80.484375 -7.015625 C 78.898438 -6.046875 77.378906 -5.117188 75.921875 -4.234375 C 74.460938 -3.347656 71.484375 -2.195312 66.984375 -0.78125 C 62.484375 0.625 58.132812 1.328125 53.9375 1.328125 C 49.75 1.328125 45.515625 0.773438 41.234375 -0.328125 C 36.953125 -1.429688 32.539062 -3.285156 28 -5.890625 C 23.457031 -8.492188 19.375 -11.671875 15.75 -15.421875 C 12.132812 -19.171875 9.15625 -23.976562 6.8125 -29.84375 C 4.476562 -35.71875 3.3125 -42.097656 3.3125 -48.984375 C 3.3125 -55.867188 4.457031 -62.113281 6.75 -67.71875 C 9.039062 -73.320312 11.972656 -77.953125 15.546875 -81.609375 C 19.128906 -85.273438 23.210938 -88.34375 27.796875 -90.8125 C 36.453125 -95.582031 45.148438 -97.96875 53.890625 -97.96875 C 58.035156 -97.96875 62.25 -97.328125 66.53125 -96.046875 C 70.8125 -94.765625 74.050781 -93.460938 76.25 -92.140625 L 79.4375 -90.296875 C 81.019531 -89.316406 82.253906 -88.519531 83.140625 -87.90625 C 85.429688 -86.050781 86.578125 -83.953125 86.578125 -81.609375 C 86.578125 -79.273438 85.648438 -76.828125 83.796875 -74.265625 C 80.359375 -69.503906 77.269531 -67.125 74.53125 -67.125 C 72.945312 -67.125 70.695312 -68.09375 67.78125 -70.03125 C 64.070312 -73.03125 59.128906 -74.53125 52.953125 -74.53125 C 47.210938 -74.53125 41.566406 -72.546875 36.015625 -68.578125 C 33.359375 -66.640625 31.148438 -63.90625 29.390625 -60.375 C 27.628906 -56.84375 26.75 -52.847656 26.75 -48.390625 C 26.75 -43.929688 27.628906 -39.9375 29.390625 -36.40625 C 31.148438 -32.875 33.398438 -30.09375 36.140625 -28.0625 C 41.523438 -24.175781 47.128906 -22.234375 52.953125 -22.234375 C 55.691406 -22.234375 58.273438 -22.585938 60.703125 -23.296875 C 63.128906 -24.003906 64.875 -24.710938 65.9375 -25.421875 Z M 65.9375 -25.421875 "/></g></g></g><g fill="#ffffff" fill-opacity="1"><g transform="translate(357.086741, 453.416146)"><g><path d="M 50.84375 -98.234375 C 63.90625 -98.234375 75.242188 -93.507812 84.859375 -84.0625 C 94.484375 -74.625 99.296875 -62.910156 99.296875 -48.921875 C 99.296875 -34.929688 94.703125 -23.015625 85.515625 -13.171875 C 76.335938 -3.328125 65.039062 1.59375 51.625 1.59375 C 38.21875 1.59375 26.8125 -3.257812 17.40625 -12.96875 C 8.007812 -22.675781 3.3125 -34.238281 3.3125 -47.65625 C 3.3125 -54.988281 4.632812 -61.851562 7.28125 -68.25 C 9.925781 -74.644531 13.457031 -80.003906 17.875 -84.328125 C 22.289062 -88.648438 27.363281 -92.046875 33.09375 -94.515625 C 38.832031 -96.992188 44.75 -98.234375 50.84375 -98.234375 Z M 26.75 -48.328125 C 26.75 -40.472656 29.285156 -34.09375 34.359375 -29.1875 C 39.429688 -24.289062 45.097656 -21.84375 51.359375 -21.84375 C 57.628906 -21.84375 63.28125 -24.222656 68.3125 -28.984375 C 73.34375 -33.753906 75.859375 -40.15625 75.859375 -48.1875 C 75.859375 -56.21875 73.320312 -62.660156 68.25 -67.515625 C 63.175781 -72.367188 57.503906 -74.796875 51.234375 -74.796875 C 44.960938 -74.796875 39.3125 -72.347656 34.28125 -67.453125 C 29.257812 -62.554688 26.75 -56.179688 26.75 -48.328125 Z M 26.75 -48.328125 "/></g></g></g><g fill="#ffffff" fill-opacity="1"><g transform="translate(459.687354, 453.416146)"><g><path d="M 74.40625 -52.03125 C 79.613281 -45.851562 82.21875 -38.925781 82.21875 -31.25 C 82.039062 -22.414062 79.015625 -15.019531 73.140625 -9.0625 C 67.273438 -3.101562 60.148438 -0.125 51.765625 -0.125 L 16.953125 -0.125 C 10.765625 -0.125 7.144531 -1.800781 6.09375 -5.15625 C 5.5625 -6.65625 5.296875 -8.953125 5.296875 -12.046875 L 5.296875 -85.53125 C 5.296875 -87.644531 5.359375 -89.1875 5.484375 -90.15625 C 5.617188 -91.125 6.039062 -92.269531 6.75 -93.59375 C 7.988281 -95.976562 11.429688 -97.171875 17.078125 -97.171875 L 50.4375 -97.171875 C 58.5625 -97.171875 65.359375 -94.347656 70.828125 -88.703125 C 76.566406 -82.960938 79.4375 -76.078125 79.4375 -68.046875 C 79.4375 -62.222656 77.757812 -56.882812 74.40625 -52.03125 Z M 58.78125 -32.5625 C 58.78125 -34.6875 58.535156 -36.363281 58.046875 -37.59375 C 57.566406 -38.832031 56.753906 -39.71875 55.609375 -40.25 C 53.835938 -40.957031 51.363281 -41.3125 48.1875 -41.3125 C 45.007812 -41.3125 42.625 -41.925781 41.03125 -43.15625 C 39.445312 -44.394531 38.65625 -46.929688 38.65625 -50.765625 C 38.65625 -54.609375 39.472656 -57.144531 41.109375 -58.375 C 42.742188 -59.613281 45.457031 -60.234375 49.25 -60.234375 C 52.78125 -60.234375 54.898438 -61.160156 55.609375 -63.015625 C 55.867188 -63.984375 56 -65.570312 56 -67.78125 C 56 -69.988281 55.269531 -71.53125 53.8125 -72.40625 C 52.351562 -73.289062 50.171875 -73.734375 47.265625 -73.734375 L 28.734375 -73.734375 L 28.734375 -23.5625 L 50.4375 -23.5625 C 56 -23.5625 58.78125 -26.5625 58.78125 -32.5625 Z M 58.78125 -32.5625 "/></g></g></g><g fill="#ffffff" fill-opacity="1"><g transform="translate(545.209928, 453.416146)"><g><path d="M 28.734375 -23.4375 L 69.5 -23.4375 C 71.53125 -23.4375 73.050781 -23.367188 74.0625 -23.234375 C 75.082031 -23.097656 76.253906 -22.679688 77.578125 -21.984375 C 79.960938 -20.742188 81.15625 -17.300781 81.15625 -11.65625 C 81.15625 -5.476562 79.519531 -1.859375 76.25 -0.796875 C 74.75 -0.265625 72.457031 0 69.375 0 L 16.953125 0 C 10.765625 0 7.144531 -1.675781 6.09375 -5.03125 C 5.5625 -6.445312 5.296875 -8.695312 5.296875 -11.78125 L 5.296875 -85.390625 C 5.296875 -89.890625 6.132812 -92.957031 7.8125 -94.59375 C 9.488281 -96.226562 12.664062 -97.046875 17.34375 -97.046875 L 69.5 -97.046875 C 71.53125 -97.046875 73.050781 -96.976562 74.0625 -96.84375 C 75.082031 -96.707031 76.253906 -96.289062 77.578125 -95.59375 C 79.960938 -94.351562 81.15625 -90.910156 81.15625 -85.265625 C 81.15625 -79.085938 79.519531 -75.46875 76.25 -74.40625 C 74.75 -73.875 72.457031 -73.609375 69.375 -73.609375 L 28.734375 -73.609375 L 28.734375 -60.234375 L 54.9375 -60.234375 C 56.96875 -60.234375 58.488281 -60.164062 59.5 -60.03125 C 60.519531 -59.90625 61.691406 -59.488281 63.015625 -58.78125 C 65.398438 -57.539062 66.59375 -54.097656 66.59375 -48.453125 C 66.59375 -42.273438 64.914062 -38.65625 61.5625 -37.59375 C 60.0625 -37.0625 57.765625 -36.796875 54.671875 -36.796875 L 28.734375 -36.796875 Z M 28.734375 -23.4375 "/></g></g></g><g fill="#ffffff" fill-opacity="1"><g transform="translate(629.67339, 453.416146)"><g><path d="M 65 -49.109375 L 91.609375 -19.859375 C 94.609375 -16.503906 96.109375 -13.675781 96.109375 -11.375 C 96.109375 -9.082031 94.410156 -6.390625 91.015625 -3.296875 C 87.617188 -0.210938 84.75 1.328125 82.40625 1.328125 C 80.070312 1.328125 77.359375 -0.4375 74.265625 -3.96875 L 49.109375 -32.828125 L 23.96875 -3.96875 C 20.789062 -0.4375 18.070312 1.328125 15.8125 1.328125 C 13.5625 1.328125 10.691406 -0.238281 7.203125 -3.375 C 3.722656 -6.507812 1.984375 -9.179688 1.984375 -11.390625 C 1.984375 -13.597656 3.53125 -16.421875 6.625 -19.859375 L 33.234375 -49.109375 L 6.625 -78.375 C 3.53125 -81.644531 1.984375 -84.425781 1.984375 -86.71875 C 1.984375 -89.007812 3.703125 -91.722656 7.140625 -94.859375 C 10.585938 -97.992188 13.476562 -99.5625 15.8125 -99.5625 C 18.15625 -99.5625 20.875 -97.796875 23.96875 -94.265625 L 49.109375 -65.40625 L 74.265625 -94.265625 C 77.441406 -97.796875 80.15625 -99.5625 82.40625 -99.5625 C 84.664062 -99.5625 87.515625 -98.015625 90.953125 -94.921875 C 94.390625 -91.835938 96.109375 -89.101562 96.109375 -86.71875 C 96.109375 -84.332031 94.609375 -81.550781 91.609375 -78.375 Z M 65 -49.109375 "/></g></g></g><g clip-path="url(#f43d238f7c)"><g clip-path="url(#9eae881bfb)"><path fill="#ffffff" d="M 59.335938 311.464844 L 246.402344 311.464844 L 246.402344 498.535156 L 59.335938 498.535156 Z M 59.335938 311.464844 " fill-opacity="1" fill-rule="nonzero"/></g></g><g clip-path="url(#76f0514b3f)"><path fill="#1d203d" d="M 163.75 398.730469 C 163.75 398.730469 163.296875 353.683594 91.011719 380.359375 C 91.011719 380.359375 116.304688 352.296875 155 365.753906 C 155 365.753906 164.019531 344.824219 192.878906 351.589844 C 192.878906 351.589844 151.15625 361.71875 179.230469 390.992188 C 179.230469 390.992188 169.023438 394.917969 163.75 398.730469 Z M 138.003906 349.019531 C 138.003906 355.164062 142.984375 360.148438 149.128906 360.148438 C 155.273438 360.148438 160.253906 355.164062 160.253906 349.019531 C 160.253906 342.875 155.273438 337.894531 149.128906 337.894531 C 142.984375 337.894531 138.003906 342.875 138.003906 349.019531 Z M 138.003906 349.019531 " fill-opacity="1" fill-rule="nonzero"/></g><g clip-path="url(#59fba5dbc2)"><path fill="#8fc4cd" d="M 218.597656 403.84375 C 218.597656 411.007812 217.441406 418.167969 215.144531 424.957031 C 211.589844 435.484375 205.3125 445.054688 197.089844 452.527344 C 193.070312 456.183594 188.597656 459.339844 183.808594 461.90625 C 182.503906 462.605469 169.632812 468.839844 168.949219 467.648438 C 165.003906 460.742188 163.308594 452.570312 164.175781 444.664062 C 165.003906 437.132812 168.199219 429.195312 173.492188 423.667969 C 173.097656 424.082031 171.710938 434.46875 171.742188 436.753906 C 171.800781 440.886719 173.359375 445.628906 176.933594 448.199219 C 182.523438 452.222656 189.777344 447.691406 194.332031 444.082031 C 199.621094 439.882812 203.78125 434.304688 207.148438 428.496094 C 212.84375 418.660156 216.21875 407.566406 218.164062 396.421875 C 218.441406 398.859375 218.597656 401.332031 218.597656 403.84375 Z M 175.808594 431.269531 C 175.808594 437.183594 180.605469 441.980469 186.519531 441.980469 C 192.4375 441.980469 197.230469 437.183594 197.230469 431.269531 C 197.230469 425.351562 192.4375 420.558594 186.519531 420.558594 C 180.605469 420.558594 175.808594 425.351562 175.808594 431.269531 Z M 175.808594 431.269531 " fill-opacity="1" fill-rule="nonzero"/></g><g clip-path="url(#94911843bc)"><path fill="#908fcd" d="M 138.003906 384.261719 C 145.992188 384.261719 152.472656 390.742188 152.472656 398.730469 C 152.472656 406.722656 145.992188 413.199219 138.003906 413.199219 C 130.011719 413.199219 123.535156 406.722656 123.535156 398.730469 C 123.535156 390.742188 130.011719 384.261719 138.003906 384.261719 Z M 217 389.367188 C 175.25 386.8125 136.496094 426.996094 136.496094 426.996094 C 111.257812 398.730469 87.132812 396.308594 87.132812 396.308594 C 87.128906 396.335938 87.128906 396.359375 87.128906 396.386719 C 91.847656 400.117188 100.578125 407.515625 108.628906 417.042969 C 115.511719 425.191406 120.5625 433.285156 123.628906 441.089844 C 126.792969 449.136719 127.847656 456.894531 126.785156 464.226562 C 133.097656 467.046875 137.589844 468.0625 137.589844 468.0625 C 152.066406 472.085938 162.414062 468.84375 162.414062 468.84375 C 132.9375 414.023438 217 389.367188 217 389.367188 Z M 217 389.367188 " fill-opacity="1" fill-rule="nonzero"/></g></svg>